<?xml version="1.0" standalone="no"?>
<!DOCTYPE svg PUBLIC "-//W3C//DTD SVG 20010904//EN"
 "http://www.w3.org/TR/2001/REC-SVG-20010904/DTD/svg10.dtd">
<svg version="1.0" xmlns="http://www.w3.org/2000/svg"
 width="667.000000pt" height="415.000000pt" viewBox="0 0 667.000000 415.000000"
 preserveAspectRatio="xMidYMid meet">

<g transform="translate(0.000000,415.000000) scale(0.100000,-0.100000)"
fill="#000000" stroke="none">
<path d="M1232 3198 c-13 -8 -190 -293 -433 -698 -589 -981 -629 -1047 -635
-1065 -5 -13 20 -15 220 -15 214 0 227 1 244 20 9 11 58 91 107 178 l90 157
315 0 315 0 6 -162 c4 -90 9 -169 13 -178 5 -13 57 -15 405 -15 220 0 402 4
405 8 2 4 32 142 65 307 34 164 65 303 69 307 5 5 64 7 131 6 l123 -3 32 -85
c18 -47 70 -175 114 -285 45 -111 82 -205 82 -211 0 -6 8 -18 18 -27 17 -16
101 -17 1003 -17 541 0 989 4 995 8 12 8 73 112 129 222 21 41 47 87 57 103
l19 27 333 0 334 0 22 -147 c12 -82 25 -161 29 -178 l7 -30 222 -3 222 -2 0
22 c0 13 -22 165 -49 338 -70 445 -94 604 -160 1032 -31 208 -61 381 -65 385
-10 10 -497 14 -533 4 -29 -8 -32 -13 -145 -216 -31 -55 -99 -176 -151 -270
-52 -93 -129 -231 -169 -305 -119 -216 -319 -563 -336 -582 -14 -17 -44 -18
-359 -18 -188 0 -343 3 -343 6 0 7 370 391 709 735 145 147 269 277 277 287
16 23 78 351 69 361 -10 9 -1205 12 -1240 3 -18 -5 -31 -16 -33 -28 -2 -10
-19 -91 -37 -179 -19 -88 -31 -163 -26 -168 4 -4 168 -6 364 -5 259 2 357 0
357 -8 0 -6 -222 -237 -492 -514 l-493 -502 -34 -137 c-35 -142 -37 -148 -47
-139 -18 19 -234 543 -234 570 0 12 22 29 72 54 233 114 361 305 399 589 27
205 -20 327 -155 404 -104 60 -121 62 -696 67 -289 2 -530 1 -537 -3 -6 -5
-18 -42 -27 -83 -9 -41 -22 -106 -31 -145 -8 -38 -31 -155 -50 -260 -31 -164
-164 -823 -181 -895 -6 -23 -7 -24 -14 -5 -4 11 -10 70 -14 130 -3 61 -11 162
-16 225 -5 63 -17 221 -25 350 -28 427 -47 675 -52 680 -2 3 -125 6 -271 8
-203 2 -272 0 -290 -10z m1879 -416 c25 -28 29 -41 29 -88 0 -83 -18 -130 -73
-190 -77 -85 -113 -94 -362 -94 -112 0 -206 3 -208 8 -5 9 68 375 78 392 5 8
75 11 257 8 l250 -3 29 -33z m2558 -78 c5 -33 14 -99 20 -149 6 -49 18 -141
26 -203 8 -62 15 -128 15 -147 l0 -35 -195 0 c-139 0 -195 3 -195 11 0 17 234
464 297 567 8 13 17 22 19 19 3 -2 9 -31 13 -63z m-4249 -236 c6 -153 9 -282
5 -288 -4 -6 -71 -10 -181 -10 -196 0 -194 -1 -149 70 14 22 25 41 25 44 0 5
190 341 237 419 20 32 39 55 44 50 4 -4 13 -133 19 -285z"/>
</g>
</svg>
